# xmcd
# 
# Track frame offsets:
#     150
#     15260
#     34272
#     54772
#     71661
#     92244
#     104127
#     121685
#     139063
#     150944
#     163734
#     181261
# 
# Disc length: 2582
# 
# Revision: 0
# Processed by: cddbd v1.5.2PL0 Copyright (c) Steve Scherf et al.
# Submitted via: fre:ac v1.0.31
# 
DISCID=920a140c
DTITLE=Salvador Sobral - Paris, Lisboa
DYEAR=2019
DGENRE=
TTITLE0=180, 181 (catarse)
TTITLE1=Presságio
TTITLE2=Cerca del mar
TTITLE3=Ela disse-me assim
TTITLE4=Playing with the wind
TTITLE5=Prometo não prometer (com Luisa Sobral)
TTITLE6=Benjamin
TTITLE7=Grandes ilusiones
TTITLE8=Mano a mano (reprise com António Zambujo)
TTITLE9=La Souffleuse
TTITLE10=Paris, Tokyo II
TTITLE11=Anda estragar-me os planos
EXTD=
EXTT0=
EXTT1=
EXTT2=
EXTT3=
EXTT4=
EXTT5=
EXTT6=
EXTT7=
EXTT8=
EXTT9=
EXTT10=
EXTT11=
PLAYORDER=
